HIERARCHY
ROOT Hips
{
	OFFSET 0.000000 0.000000 0.000000
	CHANNELS 6 Xposition Yposition Zposition Xrotation Yrotation Zrotation
	JOINT LeftUpLeg_virtual
	{
		OFFSET 0.000000 0.000000 0.000000
		CHANNELS 3 Xrotation Yrotation Zrotation
		JOINT LeftUpLeg
		{
			OFFSET 13.026900 -6.336304 -1.092800
			CHANNELS 3 Xrotation Yrotation Zrotation
			JOINT LeftLeg
			{
				OFFSET 0.524474 -46.096886 9.782700
				CHANNELS 3 Xrotation Yrotation Zrotation
				JOINT LeftFoot
				{
					OFFSET -0.524474 -53.427422 -12.948200
					CHANNELS 3 Xrotation Yrotation Zrotation
					JOINT LeftToeBase
					{
						OFFSET 0.192200 -14.009700 16.364100
						CHANNELS 3 Xrotation Yrotation Zrotation
						JOINT LeftToe_End
						{
							OFFSET -1.784700 -0.561700 9.474800
							CHANNELS 3 Xrotation Yrotation Zrotation
							End Site
							{
								OFFSET 0 0 0
							}
						}
					}
				}
			}
		}
	}
	JOINT RightUpLeg_virtual
	{
		OFFSET 0.000000 0.000000 0.000000
		CHANNELS 3 Xrotation Yrotation Zrotation
		JOINT RightUpLeg
		{
			OFFSET -12.883000 -6.336304 -1.092800
			CHANNELS 3 Xrotation Yrotation Zrotation
			JOINT RightLeg
			{
				OFFSET -0.524587 -46.096825 9.782800
				CHANNELS 3 Xrotation Yrotation Zrotation
				JOINT RightFoot
				{
					OFFSET 0.524587 -53.427383 -12.948300
					CHANNELS 3 Xrotation Yrotation Zrotation
					JOINT RightToeBase
					{
						OFFSET -0.192200 -14.009700 16.364100
						CHANNELS 3 Xrotation Yrotation Zrotation
						JOINT RightToe_End
						{
							OFFSET 1.784700 -0.561700 9.474800
							CHANNELS 3 Xrotation Yrotation Zrotation
							End Site
							{
								OFFSET 0 0 0
							}
						}
					}
				}
			}
		}
	}
	JOINT Spine_virtual
	{
		OFFSET 0.000000 0.000000 0.000000
		CHANNELS 3 Xrotation Yrotation Zrotation
		JOINT Spine
		{
			OFFSET 0.072000 7.257294 -0.789700
			CHANNELS 3 Xrotation Yrotation Zrotation
			JOINT Spine1
			{
				OFFSET 0.000000 12.508769 -0.658067
				CHANNELS 3 Xrotation Yrotation Zrotation
				JOINT Spine1_split
				{
					OFFSET 0.000000 12.508769 -0.658067
					CHANNELS 3 Xrotation Yrotation Zrotation
					JOINT Spine2
					{
						OFFSET 0.000000 12.508769 -0.658067
						CHANNELS 3 Xrotation Yrotation Zrotation
						JOINT Neck_virtual
						{
							OFFSET 0.000000 0.000000 0.000000
							CHANNELS 3 Xrotation Yrotation Zrotation
							JOINT Neck
							{
								OFFSET 0.000000 14.033295 7.520400
								CHANNELS 3 Xrotation Yrotation Zrotation
								JOINT Head
								{
									OFFSET 0.000000 8.198502 5.703100
									CHANNELS 3 Xrotation Yrotation Zrotation
									JOINT HeadTop_End
									{
										OFFSET 0.000000 17.760803 13.332701
										CHANNELS 3 Xrotation Yrotation Zrotation
										End Site
										{
											OFFSET 0 0 0
										}
									}
								}
							}
						}
						JOINT LeftShoulder_virtual
						{
							OFFSET 0.000000 0.000000 0.000000
							CHANNELS 3 Xrotation Yrotation Zrotation
							JOINT LeftShoulder
							{
								OFFSET 6.292450 5.785301 -0.669000
								CHANNELS 3 Xrotation Yrotation Zrotation
								JOINT LeftShoulder_split
								{
									OFFSET 6.292450 5.785301 -0.669000
									CHANNELS 3 Xrotation Yrotation Zrotation
									JOINT LeftArm
									{
										OFFSET 13.907140 -6.093903 1.965100
										CHANNELS 3 Xrotation Yrotation Zrotation
										JOINT LeftForeArm
										{
											OFFSET 34.140198 0.000000 0.000000
											CHANNELS 3 Xrotation Yrotation Zrotation
											JOINT LeftHand
											{
												OFFSET 40.960209 0.000000 0.000000
												CHANNELS 3 Xrotation Yrotation Zrotation
												End Site
												{
													OFFSET 0 0 0
												}
											}
										}
									}
								}
							}
						}
						JOINT RightShoulder_virtual
						{
							OFFSET 0.000000 0.000000 0.000000
							CHANNELS 3 Xrotation Yrotation Zrotation
							JOINT RightShoulder
							{
								OFFSET -6.292450 5.785301 -0.669000
								CHANNELS 3 Xrotation Yrotation Zrotation
								JOINT RightShoulder_split
								{
									OFFSET -6.292450 5.785301 -0.669000
									CHANNELS 3 Xrotation Yrotation Zrotation
									JOINT RightArm
									{
										OFFSET -13.907140 -6.093903 1.965100
										CHANNELS 3 Xrotation Yrotation Zrotation
										JOINT RightForeArm
										{
											OFFSET -34.140198 0.000000 0.000000
											CHANNELS 3 Xrotation Yrotation Zrotation
											JOINT RightHand
											{
												OFFSET -40.960209 0.000000 0.000000
												CHANNELS 3 Xrotation Yrotation Zrotation
												End Site
												{
													OFFSET 0 0 0
												}
											}
										}
									}
								}
							}
						}
					}
				}
			}
		}
	}
}
MOTION
Frames: 9
Frame Time: 0.03333333
11.334418 98.418022 0.620888 0.000000 0.000000 0.000000 9.540156 -0.633772 -11.186616 -50.427304 -9.150000 29.516400 46.085004 -1.228905 -4.195626 0.644946 0.493232 -15.120120 -1.806203 0.084615 0.219544 0.000000 0.000000 0.000000 10.200499 -1.602862 -11.843045 -36.081024 -23.540715 1.366642 45.313661 7.268095 1.625902 -14.700334 -16.733163 -7.085899 -0.859365 0.219083 -1.109496 0.000000 0.000000 0.000000 8.875274 0.392164 -12.143348 7.703453 -3.243210 -7.087759 5.372535 -1.760368 -6.252191 1.297032 0.931670 0.579112 0.000000 0.000000 0.000000 7.735690 -1.749119 -6.365876 -6.734840 0.422734 -6.764764 -29.690204 -12.537389 13.299580 0.000000 0.000000 0.000000 6.747542 -1.513081 -6.037937 0.895257 -5.078615 -7.558562 -1.059018 -3.994412 0.351760 -27.366649 7.782087 -19.383674 2.480919 -59.048037 2.298665 0.000000 0.000000 0.000000 6.503275 -1.878622 -6.033786 1.874209 -1.899968 4.228950 6.464250 4.231542 -3.066860 25.026785 -8.658090 81.098162 8.884920 80.452867 -7.893592 0.000000 0.000000 0.000000 
11.513060 97.282372 -0.646797 0.000000 0.000000 0.000000 9.233518 -1.853056 -10.457151 -51.390306 -9.960145 29.185351 47.885210 -0.379229 -4.382036 0.924126 0.913895 -15.054794 -1.305545 0.124578 0.272259 0.000000 0.000000 0.000000 9.817009 -2.630860 -11.140383 -37.907191 -22.132058 1.654135 47.166708 6.581192 1.593148 -14.873630 -17.046166 -7.210924 -0.952603 0.264161 -1.279256 0.000000 0.000000 0.000000 8.503253 -0.839938 -11.573996 8.532742 -2.806902 -6.602739 5.902793 -1.495073 -5.955893 1.365644 0.934250 0.623840 0.000000 0.000000 0.000000 8.020333 -1.515862 -6.090751 -5.813380 0.296794 -6.610299 -28.709785 -11.959533 12.963951 0.000000 0.000000 0.000000 7.153779 -1.340381 -5.922594 0.942102 -5.275924 -8.446790 -0.877360 -4.023846 0.568928 -24.438767 12.096485 -22.889969 2.067015 -56.658000 1.977321 0.000000 0.000000 0.000000 7.071689 -1.597768 -5.738036 1.867916 -0.775916 5.039059 6.128678 3.833288 -3.076627 21.967589 -5.582878 79.510669 6.433026 76.560342 -5.532648 0.000000 0.000000 0.000000 
11.558146 96.534302 -1.725159 0.000000 0.000000 0.000000 8.900636 -2.916790 -9.834427 -51.861152 -10.528924 28.931647 48.874884 0.611166 -4.595400 1.071580 1.376479 -14.903406 -0.884817 0.161966 0.206233 0.000000 0.000000 0.000000 9.330778 -3.586767 -10.516723 -39.323551 -20.810336 1.996547 48.328537 5.890400 1.597639 -14.823435 -17.165254 -7.166485 -0.827603 0.307797 -1.375246 0.000000 0.000000 0.000000 8.076524 -2.176598 -11.056960 9.180137 -2.463323 -6.238397 6.293698 -1.278904 -5.696882 1.408548 0.996142 0.491193 0.000000 0.000000 0.000000 8.157268 -1.333124 -5.828799 -5.044049 0.288101 -6.497967 -27.168363 -11.278831 12.784779 0.000000 0.000000 0.000000 7.399754 -1.195433 -5.829411 0.984595 -5.425778 -9.293600 -0.927196 -3.721677 0.820906 -21.474618 15.134682 -26.860783 1.557856 -53.299159 1.577080 0.000000 0.000000 0.000000 7.520889 -1.357295 -5.495482 1.801129 0.260014 5.861878 5.767829 3.543991 -2.990243 18.883045 -2.689908 77.703586 5.070625 72.894511 -4.293713 0.000000 0.000000 0.000000 
11.464287 96.212776 -2.553947 0.000000 0.000000 0.000000 8.447153 -3.839931 -9.342639 -51.906224 -10.933200 28.791218 49.226372 1.503398 -4.770848 1.313370 1.680661 -14.822849 -0.671436 0.180028 0.069291 0.000000 0.000000 0.000000 8.799100 -4.468000 -10.025132 -40.228441 -19.568212 2.471727 48.737081 5.228629 1.594787 -14.414831 -17.130132 -6.914276 -0.761380 0.336468 -1.400640 0.000000 0.000000 0.000000 7.585150 -3.596153 -10.604460 9.565384 -2.203142 -5.998379 6.491574 -1.118480 -5.490908 1.357334 1.161068 0.288033 0.000000 0.000000 0.000000 8.092081 -1.192510 -5.614108 -4.400127 0.330737 -6.413685 -25.076005 -10.629504 12.807464 0.000000 0.000000 0.000000 7.450750 -1.082263 -5.763608 1.018457 -5.456859 -10.090176 -1.090896 -3.326092 1.008687 -18.631675 16.790683 -30.896815 1.109686 -49.497766 1.224278 0.000000 0.000000 0.000000 7.782535 -1.153506 -5.330788 1.684929 1.152841 6.721438 5.576589 3.432499 -2.819365 15.831885 -0.011056 75.910504 4.186860 69.482449 -3.543851 0.000000 0.000000 0.000000 
11.249966 96.287766 -3.189266 0.000000 0.000000 0.000000 7.799347 -4.701977 -9.008818 -51.469946 -11.178392 28.773012 49.149491 2.190395 -4.875223 1.734647 1.823259 -14.656500 -0.577786 0.167060 -0.081587 0.000000 0.000000 0.000000 8.203657 -5.349851 -9.654844 -40.503415 -18.385739 3.137910 48.343905 4.589124 1.579959 -13.683189 -17.015185 -6.621568 -0.800939 0.329943 -1.365071 0.000000 0.000000 0.000000 6.999851 -5.096955 -10.224374 9.640610 -1.999907 -5.866070 6.489830 -1.014202 -5.345579 1.324527 1.490723 0.107588 0.000000 0.000000 0.000000 7.802996 -1.084962 -5.462339 -3.786648 0.359464 -6.310613 -22.341935 -10.097169 13.037241 0.000000 0.000000 0.000000 7.316742 -0.997857 -5.723515 1.042676 -5.360577 -10.872076 -1.491267 -2.924974 1.010454 -16.056392 17.161528 -34.601400 0.858266 -45.880208 1.009924 0.000000 0.000000 0.000000 7.803051 -0.987769 -5.254659 1.558912 1.871916 7.590046 5.524270 3.443439 -2.668155 12.929242 2.516383 74.281859 3.556242 66.438302 -3.022471 0.000000 0.000000 0.000000 
10.913264 96.728737 -3.585987 0.000000 0.000000 0.000000 6.948753 -5.450272 -8.804322 -50.398190 -11.159885 28.889825 48.640301 2.755056 -4.920494 2.162810 1.960866 -14.271387 -0.403931 0.136820 -0.210581 0.000000 0.000000 0.000000 7.458044 -6.216317 -9.402316 -40.115234 -17.317605 3.944416 47.211545 3.931636 1.559692 -12.741292 -16.860901 -6.441180 -0.792989 0.281103 -1.296887 0.000000 0.000000 0.000000 6.212557 -6.604291 -9.905139 9.416332 -1.847084 -5.807807 6.289123 -0.976687 -5.260802 1.229979 1.810059 0.015238 0.000000 0.000000 0.000000 7.306162 -1.019793 -5.375317 -3.124051 0.344529 -6.143634 -18.889342 -9.684464 13.473178 0.000000 0.000000 0.000000 7.008444 -0.962175 -5.701226 1.053611 -5.149276 -11.623787 -2.040110 -2.596025 0.803807 -13.996977 16.424028 -37.673302 0.863119 -42.880030 0.966214 0.000000 0.000000 0.000000 7.576558 -0.876793 -5.261452 1.440146 2.379293 8.437374 5.500135 3.410800 -2.524333 10.380317 4.840785 72.801607 3.065056 64.108429 -2.616701 0.000000 0.000000 0.000000 
10.516084 97.478157 -3.871361 0.000000 0.000000 0.000000 5.914755 -6.211787 -8.695030 -48.634492 -10.809899 29.115529 47.628859 3.276018 -4.901208 2.407529 2.168000 -13.668694 -0.215216 0.098123 -0.287057 0.000000 0.000000 0.000000 6.518475 -7.071318 -9.250726 -39.079129 -16.415607 4.858429 45.516558 3.201894 1.529201 -11.615314 -16.677235 -6.366096 -0.794423 0.204983 -1.240050 0.000000 0.000000 0.000000 5.172883 -8.036097 -9.655958 8.936359 -1.728593 -5.777129 5.932434 -1.011706 -5.220828 1.112248 2.114563 0.032914 0.000000 0.000000 0.000000 6.641585 -1.000027 -5.341315 -2.358770 0.278743 -5.885287 -14.765909 -9.364821 14.089176 0.000000 0.000000 0.000000 6.537776 -0.981502 -5.686452 1.042044 -4.930764 -12.300657 -2.659393 -2.376555 0.405225 -12.796525 14.711128 -39.883698 1.095643 -40.581521 1.052898 0.000000 0.000000 0.000000 7.146554 -0.838499 -5.321035 1.341503 2.676499 9.255430 5.443408 3.323535 -2.439152 8.377694 6.960095 71.410174 2.676322 62.716395 -2.303313 0.000000 0.000000 0.000000 
10.103015 98.457558 -4.098125 0.000000 0.000000 0.000000 4.768762 -7.031825 -8.641992 -46.257736 -10.130800 29.353834 46.188147 3.726570 -4.784893 2.317039 2.461861 -12.849620 -0.199594 0.057905 -0.293004 0.000000 0.000000 0.000000 5.365547 -7.877825 -9.159940 -37.406853 -15.680320 5.862443 43.436540 2.424207 1.479981 -10.322823 -16.444649 -6.282979 -0.878705 0.114855 -1.236690 0.000000 0.000000 0.000000 3.870917 -9.325245 -9.480910 8.289656 -1.642055 -5.724171 5.476820 -1.118943 -5.206523 1.056219 2.416577 0.015055 0.000000 0.000000 0.000000 5.890348 -1.037911 -5.332164 -1.519159 0.155674 -5.499367 -10.130532 -9.119672 14.814977 0.000000 0.000000 0.000000 5.968215 -1.058496 -5.662295 1.017864 -4.804396 -12.854436 -3.266651 -2.150270 -0.148782 -12.640328 12.095631 -41.184149 1.417666 -38.662877 1.190505 0.000000 0.000000 0.000000 6.594273 -0.885737 -5.397364 1.268138 2.794681 10.001668 5.181655 3.232152 -2.402269 7.118462 8.863599 69.956102 2.380787 62.367933 -2.050539 0.000000 0.000000 0.000000 
9.687980 99.568497 -4.324753 0.000000 0.000000 0.000000 3.538007 -7.937859 -8.579883 -43.598125 -9.186151 29.525689 44.655558 4.008835 -4.573345 1.966066 2.737104 -11.899222 -0.361416 0.013981 -0.264124 0.000000 0.000000 0.000000 4.023488 -8.589803 -9.108716 -35.179559 -15.105892 6.918191 41.129033 1.621739 1.380922 -8.940168 -16.089805 -6.132678 -1.057424 0.039486 -1.275441 0.000000 0.000000 0.000000 2.332676 -10.402986 -9.381988 7.563539 -1.576526 -5.609446 4.987347 -1.280523 -5.189053 0.992144 2.620722 0.021932 0.000000 0.000000 0.000000 5.116832 -1.121837 -5.321909 -0.706049 -0.001800 -4.981804 -5.373256 -8.859675 15.524084 0.000000 0.000000 0.000000 5.362014 -1.173892 -5.605530 0.972531 -4.877804 -13.181293 -3.526907 -1.967964 -0.614415 -13.528505 8.578057 -41.659520 1.677445 -36.617737 1.292009 0.000000 0.000000 0.000000 6.006615 -0.996730 -5.455350 1.207353 2.800998 10.681052 4.779905 3.279098 -2.287130 6.562875 10.506597 68.258308 2.142245 62.683672 -1.826814 0.000000 0.000000 0.000000 
